<svg width="24" height="24" viewBox="0 0 24 24" fill="none" xmlns="http://www.w3.org/2000/svg">
<g clip-path="url(#clip0)">
<path d="M12 24H11.646L14.106 17.255H17.478C18.075 17.255 18.727 16.807 18.932 16.248L21.596 8.944C22.025 7.752 21.354 6.764 20.068 6.764H15.373L9.223 23.684C3.933 22.415 0 17.663 0 12C0 6.503 3.708 1.863 8.758 0.446999L2.646 17.255H5.18L8.422 8.329H10.342L7.099 17.255H9.634L12.671 8.925C13.099 7.733 12.429 6.745 11.143 6.745H9L11.46 0.0199995C11.646 0.0199995 11.814 0.000999451 12 0.000999451C18.634 0.000999451 24 5.367 24 12.001C24 18.635 18.634 24.001 12 24.001V24ZM19.267 8.33H17.347L14.665 15.67H16.584L19.267 8.33Z" fill="black"/>
</g>
<defs>
<clipPath id="clip0">
<rect width="24" height="24" fill="white"/>
</clipPath>
</defs>
</svg>
