<svg width="24" height="24" viewBox="0 0 24 24" fill="none" xmlns="http://www.w3.org/2000/svg">
<g clip-path="url(#clip0)">
<path d="M19.96 19.9999C19.8751 19.9999 19.7937 19.9662 19.7337 19.9062C19.6737 19.8462 19.64 19.7648 19.64 19.6799V4.31991C19.64 4.23504 19.6737 4.15365 19.7337 4.09364C19.7937 4.03363 19.8751 3.99991 19.96 3.99991H23.67C23.7129 3.99857 23.7555 4.00586 23.7955 4.02134C23.8355 4.03682 23.872 4.06018 23.9028 4.09003C23.9335 4.11988 23.958 4.15561 23.9747 4.1951C23.9914 4.23459 24 4.27703 24 4.31991V19.6799C24 19.7228 23.9914 19.7652 23.9747 19.8047C23.958 19.8442 23.9335 19.8799 23.9028 19.9098C23.872 19.9396 23.8355 19.963 23.7955 19.9785C23.7555 19.994 23.7129 20.0013 23.67 19.9999H19.96ZM13.74 19.9999C13.74 19.9999 13.44 19.9099 13.44 19.6799V10.2499C13.4495 9.9561 13.3994 9.66342 13.2928 9.38946C13.1862 9.11549 13.0254 8.86592 12.8198 8.65573C12.6143 8.44555 12.3684 8.2791 12.0969 8.1664C11.8254 8.05369 11.5339 7.99706 11.24 7.99991H4.3C3.9 7.99991 4 8.29991 4 8.29991V19.6799C4 19.9499 3.7 19.9999 3.7 19.9999H0.33C0.287143 20.0013 0.244454 19.994 0.204468 19.9785C0.164482 19.963 0.128015 19.9396 0.0972333 19.9098C0.0664513 19.8799 0.041982 19.8442 0.0252788 19.8047C0.00857553 19.7652 -2.09036e-05 19.7228 3.817e-08 19.6799V4.31991C-2.09036e-05 4.27703 0.00857553 4.23459 0.0252788 4.1951C0.041982 4.15561 0.0664513 4.11988 0.0972333 4.09003C0.128015 4.06018 0.164482 4.03682 0.204468 4.02134C0.244454 4.00586 0.287143 3.99857 0.33 3.99991H13.19C14.3182 4.00782 15.3976 4.46086 16.1935 5.2605C16.9894 6.06014 17.4374 7.1417 17.44 8.26991L17.45 19.6799C17.45 19.7648 17.4163 19.8462 17.3563 19.9062C17.2963 19.9662 17.2149 19.9999 17.13 19.9999H13.74ZM6.84 19.9999C6.76044 19.9999 6.68413 19.9683 6.62787 19.912C6.57161 19.8558 6.54 19.7795 6.54 19.6999V10.6999C6.54 10.6203 6.57161 10.544 6.62787 10.4878C6.68413 10.4315 6.76044 10.3999 6.84 10.3999H10.61C10.6878 10.4025 10.7616 10.4353 10.8157 10.4912C10.8698 10.5472 10.9 10.622 10.9 10.6999V19.6999C10.9 19.7795 10.8684 19.8558 10.8121 19.912C10.7559 19.9683 10.6796 19.9999 10.6 19.9999H6.84Z" fill="black"/>
</g>
<defs>
<clipPath id="clip0">
<rect width="24" height="24" fill="white"/>
</clipPath>
</defs>
</svg>
